<?xml version="1.0" encoding="utf-8"?>
<!-- Generator: Adobe Illustrator 23.0.3, SVG Export Plug-In . SVG Version: 6.00 Build 0)  -->
<svg version="1.1" id="Layer_1" xmlns="http://www.w3.org/2000/svg" xmlns:xlink="http://www.w3.org/1999/xlink" x="0px" y="0px"
	 viewBox="0 0 512 512" style="enable-background:new 0 0 512 512;" xml:space="preserve">
<style type="text/css">
	.st0{fill:#FFF803;stroke:#FFFFFF;stroke-miterlimit:10;}
</style>
<g id="gun_x2C__military_x2C__weapon_x2C__military">
	<g>
		<path class="st0" d="M88.2,208.1c-2,0.4-3.6,2.7-3.4,4.9c0.1,1.5,1.5,5.1,9.8,4.9c7.7,0.3,14.2,3.5,18.1,9
			c4.4,5.9,5.3,14.1,2.8,23c-5.2,18.5-16.9,51.5-24,67.9c-7.5,17.6-2.1,37.8-2.1,38c0.3,0.9,1.1,1.9,3.6,1.9l0,0
			c0.6,0,1.2-0.1,1.7-0.1v1.5h0.8c0.1,0,0.3,0,0.8,0c0.5,1.9,2.5,6.5,7.8,6.5c5.3,0,6.8-4.6,7.2-6.4c0.4,0,0.8,0,1.2,0
			c-0.3,1.7-0.6,5.5,1.9,5.5c3.4,0,43.4,2.5,52.5,2.5c9.1,0,11-2.9,11-5.4c0-1.7,0-3.9,0-5.2c0.8-0.5,1.5-1,1.9-1.7
			c1.1-1.4,1.4-3.1,0.9-5.2c-3.4-17.3,3.2-40.5,7.5-55.9c1.2-4.1,2.2-7.8,2.8-10.6c1.7-8,5.8-12.7,12-13.9c1.2-0.3,2.6-0.4,4-0.4
			c3,0,7.6,1.2,12.1,2.3c4.3,1.1,8.4,2.1,10.9,2.1H241c8.5,0,23.6-4.8,31.8-7.5c0.8-0.3,1.6-0.6,2.2-0.8c7.2-2.3,7.8-3.7,7.6-10.1
			c0-0.6,0-1.2-0.1-1.9c-0.2-5.5-0.4-11.1,2.7-18.3c1.7-4.3,4.2-7.9,7.4-10.8c7-6.3,16.2-7.7,21.6-7.9c0.4,0,0.8,0,1.1,0
			c0.1,0,0.1,0,0.1,0h13.7h58.3c0.3,0,0.6-0.1,0.9-0.3h0.1l0.2-0.2c0.1,0,0.1,0,0.1,0c0.1-0.1,0.1-0.1,0.2-0.1
			c0.7-0.8,1.1-2.1,1.2-4.2H409c2,0,3.5-0.6,4.6-1.6c2.1-2.1,2.1-5.6,2.1-9v-8.5h0.6v-14.1h7c2.4,0,3.7-5.8,3.7-11.5
			c0-5.7-1.3-11.5-3.7-11.5h-7.4c-0.3-1.9-0.8-3.5-1.5-4.1c-0.4-0.5-0.8-0.6-1.1-0.6h-0.6c-1.4-1.5-5.7-5.5-13.3-5.5l-2.8,5.5h-3.5
			c-2.3,0-2.6,1.8-2.6,4.7H236.3v-0.8c0-2.5-2.4-2.5-3.7-2.5h-1.1h-75.9c-0.9-2.2-1.9-4.4-2.3-5c-1.1-1-4.9-1.4-5.6,0
			c-0.3,0.7-1.3,2.9-2.3,5h-11l-0.2,0.3c0,0-0.1,0.1-0.3,0.3h-1.5l-5.5,8.3c-0.7,0.8-1.4,1.6-2.1,2.5c-1.2-0.2-5-0.9-7.9-2.3
			c-0.6-0.3-1.1-0.4-1.8-0.4c-0.1,0-0.1,0.1-0.2,0.1c-2.6-0.3-5.9,2.1-5.8,6.5c-0.1,2.1,0.6,5.2,3.5,9c1,1.4,1.2,2.6,1.3,3.6
			c-0.1,1-0.3,1.7-0.3,1.7l0.2-0.3c0,0,0,0,0,0.1c-0.4,1.2-0.8,2.3-1,3.5l-3.6,5.7l-0.1,0.1c-5.2,17-14.6,17.5-19.2,17.8
			C89.3,208,88.6,208,88.2,208.1L88.2,208.1z M118.7,167.2c-0.1,1.5-1.3,2.7-2.8,2.9c-1.3-0.2-2.3-1.2-2.3-2.6
			c0-1.5,1.2-2.6,2.6-2.6C117.5,164.9,118.6,165.9,118.7,167.2L118.7,167.2L118.7,167.2z M112.5,167.2c0-0.1-0.1-0.2-0.1-0.3
			c0-1.8,1.4-3.2,3.2-3.2c0.1,0,0.2,0,0.3,0C114,163.9,112.6,165.4,112.5,167.2L112.5,167.2L112.5,167.2z M276.2,239.2
			c0,9,0.1,18.3-14.4,23.9c-7.3,2.8-17.1,4.5-26.2,4.5c-13,0-23.6-3.4-29.7-9.5c-0.3-0.3-0.7-0.7-1-1c-6.1-7-7.9-16.2-4.6-23.3
			c3.2-7.1,10.8-11.2,20.6-11.3c1.4,1.6,5.4,4.1,5.4,4.1l1.1,11.7l2.7,1.9c-0.3,6.5,12.8,18,19.7,18.4c6.9,0.4,2.5-1.8,2.5-1.8
			c-22.7-8.2-18-29.8-16.7-34.3h21.6c2.4,0,5,0.6,7.5,1.7c5.3,2.1,11.4,7.1,11.4,13.9V239.2L276.2,239.2L276.2,239.2z M123.9,164.3
			L123.9,164.3c0,0.1-0.1,0.1-0.1,0.1L123.9,164.3L123.9,164.3L123.9,164.3z M104,361.9c-2.3,0-3.1-1.9-3.4-2.8c1.8,0,4,0,6.5,0
			C106.9,359.9,106.2,361.9,104,361.9L104,361.9L104,361.9z"/>
	</g>
</g>
</svg>
