<?xml version="1.0" encoding="utf-8"?>
<!-- Generator: Adobe Illustrator 23.0.3, SVG Export Plug-In . SVG Version: 6.00 Build 0)  -->
<svg version="1.1" id="Layer_1" xmlns="http://www.w3.org/2000/svg" xmlns:xlink="http://www.w3.org/1999/xlink" x="0px" y="0px"
	 viewBox="0 0 256 256" style="enable-background:new 0 0 256 256;" xml:space="preserve">
<style type="text/css">
	.st0{fill:none;stroke:#000000;stroke-width:4;stroke-linecap:round;stroke-linejoin:round;stroke-miterlimit:10;}
</style>
<g>
	<path class="st0" d="M118.5,204c0.7-30.7-0.6-59.6-0.5-61.4c0.1-2.6-16.9,1.1-19-1.1s-3.3-18.2-0.5-19.6s15.4,1.1,18-0.5
		c2.7-1.7-11.5-55.3,46.6-43.4c1.6,0.8-0.1,18.7-1.1,20.1s-12.7-1.8-19.1,3.2c-6.4,5-3.7,18.7-2.4,19.6c1.3,0.9,20.2,0.2,21.4,1.6
		s1.5,18.8,0,20.1s-20.8-2.4-22.8-1.1c-1.6,1.1,4.2,60,2.6,62.4s-7.7,2.1-11.6,2.2"/>
	<path class="st0" d="M136.6,243.4c60.9-1.6,108.1-53.5,104.4-110.5c-3.7-55.6-54-97.6-108.9-95.8C76.4,39,29,85.6,29.7,141.6
		c1.5,87.4,85.5,102.6,89.2,101.6"/>
</g>
</svg>
