<?xml version="1.0" encoding="utf-8"?>
<!-- Generator: Adobe Illustrator 23.0.3, SVG Export Plug-In . SVG Version: 6.00 Build 0)  -->
<svg version="1.1" id="Layer_1" xmlns="http://www.w3.org/2000/svg" xmlns:xlink="http://www.w3.org/1999/xlink" x="0px" y="0px"
	 viewBox="0 0 256 256" style="enable-background:new 0 0 256 256;" xml:space="preserve">
<style type="text/css">
	.st0{fill:none;stroke:#000000;stroke-width:4;stroke-linecap:round;stroke-linejoin:round;stroke-miterlimit:10;}
</style>
<path class="st0" d="M188.6,124.5c0.3,14.4,1.1,35.5-0.6,41.5c-1.7,6-7.8,11.6-13,14c-5.2,2.3-73.9,1-77.5,0s-9.1-8.8-10.3-11.6
	c-1.2-2.8-0.6-72.1,0.8-77.8c1.4-5.8,6.4-9.1,10.9-11.1s53.6-1.2,62.5-0.8c9,0.4,16.9,4.9,17.6,11.5c0.7,6.7-4,9.4-9.5,8.9
	s-9.2-5.7-6.1-9.7c3.2-4,20.8-5,23.3,0.2c2.4,5.2,2.5,17.6-0.8,20.7c-3.3,3-25.2-1.1-28.6,0.2c-3.4,1.3,13.3,14.3,2.4,34.2
	c-7.1,11.5-22.7,16.8-35,10.3c-13.6-7.1-15.7-24.5-11-35.6c0.6-1.4,6.1-14.3,19.1-16c7.6-1,22.3,2.3,17.2,6.8s-46.2-1.1-56.1,0.9"/>
<path class="st0" d="M108.7,29.9c-58.2,18.2-89.5,80.9-70.3,134.8c18.7,52.5,78.6,79.2,130.9,62.4c53-17,85.9-74.7,70-128.4
	C214,15,129.1,23.3,125.8,25.4"/>
</svg>
