<?xml version="1.0" encoding="utf-8"?>
<!-- Generator: Adobe Illustrator 23.0.3, SVG Export Plug-In . SVG Version: 6.00 Build 0)  -->
<svg version="1.1" id="Layer_1" xmlns="http://www.w3.org/2000/svg" xmlns:xlink="http://www.w3.org/1999/xlink" x="0px" y="0px"
	 viewBox="0 0 256 256" style="enable-background:new 0 0 256 256;" xml:space="preserve">
<style type="text/css">
	.st0{fill:none;stroke:#000000;stroke-width:4;stroke-linecap:round;stroke-linejoin:round;stroke-miterlimit:10;}
</style>
<path class="st0" d="M105.3,167.9c-1.3,0.2-10-0.1-17.5-6.2c-7.4-6-8.6-13.7-8.1-14.3s12.5,1.2,12.7,0.5c0.4-1.3-8-4.7-13.8-11.1
	c-5.4-6.1-7.4-17-6.5-18.1s11.7,5.4,12.1,4.9c0.9-1.3-7-6.8-9.7-16.2c-2.2-7.9,0.7-21,2.7-21.3s11.9,13.9,24.3,20.8
	c12.1,6.7,27.5,12.1,30,9.4c2.5-2.6-3.8-19,11.9-29.1c16.5-9.7,31.9,3.6,33.7,4s14.6-6.9,15.1-5.9s-8.4,11.8-7.3,13
	c1.1,1.2,10.8-2.5,10.8-1.1s-10.3,8.2-11.1,11.1s4.6,23.5-10.9,46c-35.5,44.4-92.3,45.6-106.5,23.3"/>
<path class="st0" d="M21,135.5c3.2,60.8,56.3,106.7,113.1,101.5c55.5-5.1,96.2-56.5,92.9-111.4C223.7,70,175.9,23.9,120,26
	c-87.4,3.8-100.4,88.1-99.2,91.8"/>
</svg>
